<svg width="292" height="51" viewBox="0 0 292 51" fill="none" xmlns="http://www.w3.org/2000/svg">
<path d="M0.932136 49.9553L15.7943 3.40091H24.2772L39.1393 49.9553H31.8779L28.8241 39.9794H10.7724L7.71849 49.9553H0.932136ZM12.6047 33.8038H26.9239L21.0876 14.7341C20.9519 14.1007 20.7709 13.3542 20.5447 12.4946C20.3637 11.635 20.2054 10.8885 20.0697 10.2551C19.9792 9.5765 19.9339 9.23718 19.9339 9.23718H19.6625C19.6625 9.23718 19.5946 9.5765 19.4589 10.2551C19.3684 10.9338 19.2327 11.7029 19.0517 12.5625C18.8707 13.4221 18.6898 14.146 18.5088 14.7341L12.6047 33.8038ZM43.5876 49.9553V3.40091H50.3739V43.644H69.6472V49.9553H43.5876ZM74.922 49.9553V3.40091H85.0336L92.4308 32.3787C92.657 33.2383 92.8606 34.2562 93.0415 35.4325C93.2225 36.6088 93.4035 37.7625 93.5844 38.8936C93.7654 40.0246 93.9011 40.9747 93.9916 41.7438C94.0821 42.5129 94.1273 42.8975 94.1273 42.8975H94.3988C94.3988 42.8975 94.4214 42.5129 94.4667 41.7438C94.5572 40.9295 94.6703 39.9567 94.806 38.8257C94.987 37.6494 95.1679 36.4731 95.3489 35.2968C95.5299 34.1205 95.7108 33.1478 95.8918 32.3787L103.357 3.40091H113.265V49.9553H106.614V17.4487C106.614 16.9962 106.637 16.3855 106.682 15.6164C106.727 14.802 106.773 13.9876 106.818 13.1733C106.908 12.3589 106.976 11.6576 107.021 11.0695C107.067 10.4813 107.089 10.1873 107.089 10.1873H106.818C106.773 10.3682 106.682 10.7528 106.546 11.341C106.411 11.9291 106.252 12.6077 106.071 13.3769C105.936 14.146 105.777 14.8925 105.596 15.6164C105.461 16.3402 105.325 16.951 105.189 17.4487L96.774 49.9553H90.7342L82.3191 17.3808C82.2286 16.9736 82.0929 16.4081 81.9119 15.6842C81.7762 14.9603 81.6178 14.2138 81.4369 13.4447C81.3011 12.6756 81.1654 11.997 81.0297 11.4088C80.9392 10.7754 80.8713 10.3682 80.8261 10.1873H80.5546C80.5546 10.1873 80.5773 10.504 80.6225 11.1374C80.6677 11.7255 80.713 12.4494 80.7582 13.309C80.8035 14.1234 80.8487 14.9377 80.894 15.7521C80.9392 16.5212 80.9618 17.0867 80.9618 17.4487V49.9553H74.922ZM181.891 50.7697C179.086 50.7697 176.462 50.2946 174.019 49.3445C171.621 48.3492 169.698 46.8336 168.25 44.7977C166.848 42.7165 166.146 40.002 166.146 36.6541C166.146 36.3826 166.146 36.1111 166.146 35.8397C166.192 35.5682 166.214 35.3646 166.214 35.2289H173.272C173.272 35.2742 173.25 35.4551 173.204 35.7718C173.204 36.0885 173.204 36.36 173.204 36.5862C173.204 39.2102 173.996 41.2235 175.58 42.626C177.208 43.9833 179.312 44.662 181.891 44.662C184.832 44.662 187.048 44.0286 188.541 42.7618C190.034 41.4497 190.781 39.7305 190.781 37.6041C190.781 35.9754 190.351 34.6634 189.492 33.6681C188.632 32.6275 187.501 31.7905 186.098 31.1571C184.696 30.4785 183.158 29.8903 181.484 29.3927C179.81 28.8497 178.113 28.2616 176.394 27.6282C174.675 26.9948 173.114 26.1804 171.711 25.1851C170.354 24.1445 169.246 22.8325 168.386 21.249C167.526 19.6655 167.097 17.6749 167.097 15.277C167.097 12.3815 167.775 10.0063 169.132 8.15136C170.49 6.25118 172.299 4.84867 174.562 3.94382C176.869 3.03898 179.38 2.58655 182.094 2.58655C184.809 2.58655 187.275 3.03898 189.492 3.94382C191.754 4.84867 193.541 6.2738 194.853 8.21923C196.21 10.1646 196.889 12.7208 196.889 15.8878V16.7022H189.831V15.8199C189.831 13.5578 189.107 11.816 187.659 10.5944C186.257 9.32766 184.424 8.69427 182.162 8.69427C179.855 8.69427 177.955 9.21456 176.462 10.2551C174.969 11.2505 174.222 12.7435 174.222 14.7341C174.222 16.2271 174.652 17.4487 175.512 18.3988C176.371 19.3488 177.502 20.1406 178.905 20.774C180.307 21.3621 181.846 21.9277 183.52 22.4706C185.194 22.9682 186.867 23.5338 188.541 24.1672C190.261 24.8006 191.822 25.6375 193.224 26.6781C194.627 27.6734 195.758 28.9402 196.617 30.4785C197.477 32.0167 197.907 33.9621 197.907 36.3147C197.907 39.8436 197.205 42.6713 195.803 44.7977C194.4 46.8788 192.5 48.3944 190.102 49.3445C187.75 50.2946 185.013 50.7697 181.891 50.7697ZM214.253 49.9553V9.5765H201.902V3.40091H233.391V9.5765H221.107V49.9553H214.253Z" fill="#003B4A"/>
<path d="M254.766 50.7697C249.925 50.7697 246.125 49.435 243.365 46.7657C240.605 44.0964 239.225 40.183 239.225 35.0253V3.40091H246.08V35.1611C246.08 38.2375 246.849 40.5901 248.387 42.2189C249.925 43.8476 252.052 44.662 254.766 44.662C257.526 44.662 259.675 43.8476 261.213 42.2189C262.751 40.5901 263.521 38.2375 263.521 35.1611V3.40091H270.307V35.0253C270.307 40.183 268.927 44.0964 266.167 46.7657C263.407 49.435 259.607 50.7697 254.766 50.7697Z" fill="#00A5AA"/>
<path d="M271.644 50.7697C268.839 50.7697 266.215 50.2946 263.772 49.3445C261.374 48.3492 259.452 46.8336 258.004 44.7977C256.601 42.7165 255.9 40.002 255.9 36.6541C255.9 36.3826 255.9 36.1111 255.9 35.8397C255.945 35.5682 255.968 35.3646 255.968 35.2289H263.026C263.026 35.2742 263.003 35.4551 262.958 35.7718C262.958 36.0885 262.958 36.36 262.958 36.5862C262.958 39.2102 263.75 41.2235 265.333 42.626C266.962 43.9833 269.066 44.662 271.644 44.662C274.585 44.662 276.802 44.0286 278.295 42.7618C279.788 41.4497 280.535 39.7305 280.535 37.6041C280.535 35.9754 280.105 34.6634 279.245 33.6681C278.386 32.6275 277.255 31.7905 275.852 31.1571C274.449 30.4785 272.911 29.8903 271.237 29.3927C269.563 28.8497 267.867 28.2616 266.148 27.6282C264.428 26.9948 262.867 26.1804 261.465 25.1851C260.108 24.1445 258.999 22.8325 258.14 21.249C257.28 19.6655 256.85 17.6749 256.85 15.277C256.85 12.3815 257.529 10.0063 258.886 8.15136C260.243 6.25118 262.053 4.84867 264.315 3.94382C266.623 3.03898 269.133 2.58655 271.848 2.58655C274.563 2.58655 277.028 3.03898 279.245 3.94382C281.507 4.84867 283.294 6.2738 284.606 8.21923C285.964 10.1646 286.642 12.7208 286.642 15.8878V16.7022H279.584V15.8199C279.584 13.5578 278.861 11.816 277.413 10.5944C276.01 9.32766 274.178 8.69427 271.916 8.69427C269.609 8.69427 267.708 9.21456 266.215 10.2551C264.722 11.2505 263.976 12.7435 263.976 14.7341C263.976 16.2271 264.406 17.4487 265.265 18.3988C266.125 19.3488 267.256 20.1406 268.658 20.774C270.061 21.3621 271.599 21.9277 273.273 22.4706C274.947 22.9682 276.621 23.5338 278.295 24.1672C280.014 24.8006 281.575 25.6375 282.978 26.6781C284.38 27.6734 285.511 28.9402 286.371 30.4785C287.23 32.0167 287.66 33.9621 287.66 36.3147C287.66 39.8436 286.959 42.6713 285.556 44.7977C284.154 46.8788 282.254 48.3944 279.856 49.3445C277.503 50.2946 274.766 50.7697 271.644 50.7697Z" fill="#003B4A"/>
<mask id="path-3-inside-1_61_392" fill="white">
<circle cx="140.689" cy="24.1982" r="24.1982"/>
</mask>
<circle cx="140.689" cy="24.1982" r="24.1982" fill="#627283"/>
<path d="M164.943 24.1982C164.906 24.1982 164.869 24.1982 164.832 24.1982C164.714 26.7305 164.213 29.2189 163.351 31.5621C159.981 40.9879 150.556 47.5325 140.795 47.4505C140.76 47.4506 140.725 47.4507 140.689 47.4507C128.311 47.7496 117.109 36.6349 117.338 24.1982C116.966 11.7722 128.089 0.388954 140.689 0.549722C150.668 0.294562 160.382 7.13944 163.547 16.7705C164.36 19.1525 164.793 21.666 164.832 24.1982C164.869 24.1982 164.906 24.1982 164.943 24.1982C164.984 21.6547 164.625 19.1045 163.871 16.6653C160.96 6.80974 151.146 -0.596519 140.689 -0.549722C127.511 -1.01577 115.389 10.8453 115.645 24.1982C115.246 37.5404 127.289 49.67 140.689 49.3421C140.727 49.3421 140.765 49.342 140.803 49.3418C151.401 49.4666 161.382 41.7832 164.068 31.7949C164.773 29.3169 165.063 26.7415 164.943 24.1982ZM164.832 24.1982H164.943H164.832Z" fill="#003B4A" mask="url(#path-3-inside-1_61_392)"/>
<path d="M140.782 5.25376C138.871 5.25376 137.321 6.80343 137.321 8.71506C137.321 10.6267 138.871 12.1764 140.782 12.1764C142.694 12.1764 144.244 10.6267 144.244 8.71506C144.244 6.80343 142.694 5.25376 140.782 5.25376ZM140.782 8.81506L140.133 8.81506L140.133 8.86886L140.142 8.92192L140.782 8.81506ZM141.053 10.433L140.412 10.5398L141.053 10.433ZM140.688 17.0546L141.32 16.9078L140.688 17.0546ZM141.055 22.8923L141.702 22.8459L141.055 22.8923ZM141.175 24.5602L141.822 24.5138L141.175 24.5602ZM140.98 26.2282L140.359 26.0388L140.98 26.2282ZM140.471 27.8961L141.092 28.0854L140.471 27.8961ZM140.468 29.564L141.089 29.3771L140.468 29.564ZM140.718 30.3979L141.34 30.2111L140.718 30.3979ZM140.969 31.2319L140.348 31.4187L140.969 31.2319ZM140.951 32.8998L140.334 32.7009L140.951 32.8998ZM140.683 33.7338L141.301 33.9326L140.683 33.7338ZM140.364 36.2356L140.992 36.0715L140.364 36.2356ZM140.582 37.0696L141.21 36.9055L140.582 37.0696ZM140.8 37.9035L140.172 38.0676L140.8 37.9035ZM140.959 38.9735L141.589 39.1305L140.959 38.9735ZM140.9 39.2094L141.519 39.4052L141.525 39.386L141.53 39.3664L140.9 39.2094ZM140.782 39.5813L140.164 39.3855L140.133 39.4811L140.133 39.5813L140.782 39.5813ZM140.782 36.22C138.871 36.22 137.321 37.7697 137.321 39.6813C137.321 41.5929 138.871 43.1426 140.782 43.1426C142.694 43.1426 144.244 41.5929 144.244 39.6813C144.244 37.7697 142.694 36.22 140.782 36.22ZM140.782 8.71506L140.133 8.71506L140.133 8.81506L140.782 8.81506L141.431 8.81506L141.431 8.71506L140.782 8.71506ZM140.782 8.81506L140.142 8.92192L140.412 10.5398L141.053 10.433L141.693 10.3261L141.423 8.70819L140.782 8.81506ZM141.053 10.433L140.412 10.5398C140.588 11.5919 140.572 12.2866 140.447 12.6948L141.067 12.8848L141.688 13.0749C141.903 12.3711 141.877 11.4313 141.693 10.3261L141.053 10.433ZM141.067 12.8848L140.447 12.6948L140.191 13.5287L140.812 13.7188L141.432 13.9089L141.688 13.0749L141.067 12.8848ZM140.812 13.7188L140.191 13.5287L139.936 14.3627L140.556 14.5528L141.177 14.7428L141.432 13.9089L140.812 13.7188ZM140.556 14.5528L139.936 14.3627C139.733 15.0258 139.707 15.698 139.862 16.3675L140.494 16.2207L141.127 16.0739C141.024 15.6314 141.039 15.1917 141.177 14.7428L140.556 14.5528ZM140.494 16.2207L139.862 16.3675L140.056 17.2014L140.688 17.0546L141.32 16.9078L141.127 16.0739L140.494 16.2207ZM140.688 17.0546L140.056 17.2014L140.25 18.0354L140.882 17.8886L141.514 17.7418L141.32 16.9078L140.688 17.0546ZM140.882 17.8886L140.25 18.0354C140.367 18.5395 140.419 19.041 140.407 19.5409L141.055 19.5565L141.704 19.5721C141.719 18.9601 141.655 18.3496 141.514 17.7418L140.882 17.8886ZM141.055 19.5565L140.407 19.5409L140.387 20.3749L141.035 20.3905L141.684 20.406L141.704 19.5721L141.055 19.5565ZM141.035 20.3905L140.387 20.3749L140.367 21.2088L141.015 21.2244L141.664 21.24L141.684 20.406L141.035 20.3905ZM141.015 21.2244L140.367 21.2088C140.353 21.7855 140.366 22.3622 140.408 22.9387L141.055 22.8923L141.702 22.8459C141.664 22.3105 141.651 21.7752 141.664 21.24L141.015 21.2244ZM141.055 22.8923L140.408 22.9387L140.468 23.7727L141.115 23.7263L141.762 23.6799L141.702 22.8459L141.055 22.8923ZM141.115 23.7263L140.468 23.7727L140.527 24.6066L141.175 24.5602L141.822 24.5138L141.762 23.6799L141.115 23.7263ZM141.175 24.5602L140.527 24.6066C140.561 25.0797 140.507 25.5558 140.359 26.0388L140.98 26.2282L141.601 26.4175C141.793 25.7885 141.868 25.1527 141.822 24.5138L141.175 24.5602ZM140.98 26.2282L140.359 26.0388L140.105 26.8728L140.726 27.0621L141.347 27.2514L141.601 26.4175L140.98 26.2282ZM140.726 27.0621L140.105 26.8728L139.851 27.7067L140.471 27.8961L141.092 28.0854L141.347 27.2514L140.726 27.0621ZM140.471 27.8961L139.851 27.7067C139.644 28.3851 139.642 29.072 139.846 29.7508L140.468 29.564L141.089 29.3771C140.959 28.944 140.96 28.519 141.092 28.0854L140.471 27.8961ZM140.468 29.564L139.846 29.7508L140.097 30.5848L140.718 30.3979L141.34 30.2111L141.089 29.3771L140.468 29.564ZM140.718 30.3979L140.097 30.5848L140.348 31.4187L140.969 31.2319L141.591 31.045L141.34 30.2111L140.718 30.3979ZM140.969 31.2319L140.348 31.4187C140.477 31.8479 140.473 32.2694 140.334 32.7009L140.951 32.8998L141.569 33.0987C141.788 32.4183 141.796 31.7278 141.591 31.045L140.969 31.2319ZM140.951 32.8998L140.334 32.7009L140.065 33.5349L140.683 33.7338L141.301 33.9326L141.569 33.0987L140.951 32.8998ZM140.683 33.7338L140.065 33.5349L139.797 34.3689L140.414 34.5677L141.032 34.7666L141.301 33.9326L140.683 33.7338ZM140.414 34.5677L139.797 34.3689C139.581 35.0403 139.559 35.7222 139.736 36.3997L140.364 36.2356L140.992 36.0715C140.878 35.6371 140.89 35.207 141.032 34.7666L140.414 34.5677ZM140.364 36.2356L139.736 36.3997L139.954 37.2337L140.582 37.0696L141.21 36.9055L140.992 36.0715L140.364 36.2356ZM140.582 37.0696L139.954 37.2337L140.172 38.0676L140.8 37.9035L141.428 37.7394L141.21 36.9055L140.582 37.0696ZM140.8 37.9035L140.172 38.0676C140.242 38.3346 140.285 38.5376 140.307 38.6835C140.318 38.7562 140.322 38.8055 140.322 38.8355C140.323 38.871 140.319 38.8573 140.329 38.8164L140.959 38.9735L141.589 39.1305C141.642 38.9171 141.618 38.677 141.591 38.4925C141.559 38.2817 141.503 38.0285 141.428 37.7394L140.8 37.9035ZM140.959 38.9735L140.329 38.8164L140.27 39.0524L140.9 39.2094L141.53 39.3664L141.589 39.1305L140.959 38.9735ZM140.9 39.2094L140.281 39.0136L140.164 39.3855L140.782 39.5813L141.401 39.7771L141.519 39.4052L140.9 39.2094ZM140.782 39.5813L140.133 39.5813L140.133 39.6813L140.782 39.6813L141.431 39.6813L141.431 39.5813L140.782 39.5813Z" fill="white"/>
<path d="M121.931 24.2909C121.931 26.2025 123.481 27.7522 125.392 27.7522C127.304 27.7522 128.854 26.2025 128.854 24.2909C128.854 22.3793 127.304 20.8296 125.392 20.8296C123.481 20.8296 121.931 22.3793 121.931 24.2909ZM125.492 24.2909V24.9399H125.546L125.599 24.931L125.492 24.2909ZM127.11 24.0208L127.217 24.6609L127.11 24.0208ZM133.732 24.3852L133.585 23.7531L133.732 24.3852ZM139.57 24.0182L139.523 23.3709L139.57 24.0182ZM141.238 23.8987L141.191 23.2513L141.238 23.8987ZM142.905 24.0932L142.716 24.714L142.905 24.0932ZM144.573 24.602L144.763 23.9812L144.573 24.602ZM146.241 24.6056L146.054 23.9841L146.241 24.6056ZM147.075 24.3549L146.888 23.7334L147.075 24.3549ZM147.909 24.1042L148.096 24.7257L147.909 24.1042ZM149.577 24.122L149.378 24.7397L149.577 24.122ZM150.411 24.3904L150.61 23.7726L150.411 24.3904ZM152.913 24.7094L152.749 24.0815L152.913 24.7094ZM153.747 24.4914L153.583 23.8635L153.747 24.4914ZM154.581 24.2735L154.745 24.9014L154.581 24.2735ZM155.651 24.1144L155.808 23.4847L155.651 24.1144ZM155.887 24.1732L156.082 23.5545L156.063 23.5484L156.044 23.5435L155.887 24.1732ZM156.259 24.2909L156.063 24.9097L156.158 24.9399H156.259V24.2909ZM152.897 24.2909C152.897 26.2025 154.447 27.7522 156.359 27.7522C158.27 27.7522 159.82 26.2025 159.82 24.2909C159.82 22.3793 158.27 20.8296 156.359 20.8296C154.447 20.8296 152.897 22.3793 152.897 24.2909ZM125.392 24.2909V24.9399H125.492V24.2909V23.6419H125.392V24.2909ZM125.492 24.2909L125.599 24.931L127.217 24.6609L127.11 24.0208L127.003 23.3807L125.385 23.6508L125.492 24.2909ZM127.11 24.0208L127.217 24.6609C128.269 24.4853 128.964 24.5017 129.372 24.6267L129.562 24.0062L129.752 23.3856C129.048 23.17 128.109 23.1962 127.003 23.3807L127.11 24.0208ZM129.562 24.0062L129.372 24.6267L130.206 24.8822L130.396 24.2616L130.586 23.6411L129.752 23.3856L129.562 24.0062ZM130.396 24.2616L130.206 24.8822L131.04 25.1376L131.23 24.5171L131.42 23.8965L130.586 23.6411L130.396 24.2616ZM131.23 24.5171L131.04 25.1376C131.703 25.3407 132.375 25.3665 133.045 25.2111L132.898 24.5789L132.751 23.9467C132.309 24.0494 131.869 24.034 131.42 23.8965L131.23 24.5171ZM132.898 24.5789L133.045 25.2111L133.879 25.0174L133.732 24.3852L133.585 23.7531L132.751 23.9467L132.898 24.5789ZM133.732 24.3852L133.879 25.0174L134.713 24.8237L134.566 24.1916L134.419 23.5594L133.585 23.7531L133.732 24.3852ZM134.566 24.1916L134.713 24.8237C135.217 24.7067 135.718 24.6548 136.218 24.6668L136.234 24.018L136.249 23.3691C135.637 23.3544 135.027 23.4183 134.419 23.5594L134.566 24.1916ZM136.234 24.018L136.218 24.6668L137.052 24.6868L137.068 24.038L137.083 23.3892L136.249 23.3691L136.234 24.018ZM137.068 24.038L137.052 24.6868L137.886 24.7068L137.902 24.058L137.917 23.4092L137.083 23.3892L137.068 24.038ZM137.902 24.058L137.886 24.7068C138.463 24.7207 139.039 24.7069 139.616 24.6656L139.57 24.0182L139.523 23.3709C138.988 23.4093 138.453 23.4221 137.917 23.4092L137.902 24.058ZM139.57 24.0182L139.616 24.6656L140.45 24.6058L140.404 23.9585L140.357 23.3111L139.523 23.3709L139.57 24.0182ZM140.404 23.9585L140.45 24.6058L141.284 24.546L141.238 23.8987L141.191 23.2513L140.357 23.3111L140.404 23.9585ZM141.238 23.8987L141.284 24.546C141.757 24.5121 142.233 24.5667 142.716 24.714L142.905 24.0932L143.095 23.4725C142.466 23.2806 141.83 23.2055 141.191 23.2513L141.238 23.8987ZM142.905 24.0932L142.716 24.714L143.55 24.9684L143.739 24.3476L143.929 23.7268L143.095 23.4725L142.905 24.0932ZM143.739 24.3476L143.55 24.9684L144.384 25.2227L144.573 24.602L144.763 23.9812L143.929 23.7268L143.739 24.3476ZM144.573 24.602L144.384 25.2227C145.062 25.4296 145.749 25.4312 146.428 25.2271L146.241 24.6056L146.054 23.9841C145.621 24.1143 145.196 24.1135 144.763 23.9812L144.573 24.602ZM146.241 24.6056L146.428 25.2271L147.262 24.9764L147.075 24.3549L146.888 23.7334L146.054 23.9841L146.241 24.6056ZM147.075 24.3549L147.262 24.9764L148.096 24.7257L147.909 24.1042L147.722 23.4827L146.888 23.7334L147.075 24.3549ZM147.909 24.1042L148.096 24.7257C148.525 24.5967 148.947 24.6008 149.378 24.7397L149.577 24.122L149.776 23.5042C149.096 23.2852 148.405 23.2774 147.722 23.4827L147.909 24.1042ZM149.577 24.122L149.378 24.7397L150.212 25.0082L150.411 24.3904L150.61 23.7726L149.776 23.5042L149.577 24.122ZM150.411 24.3904L150.212 25.0082L151.046 25.2766L151.245 24.6589L151.444 24.0411L150.61 23.7726L150.411 24.3904ZM151.245 24.6589L151.046 25.2766C151.718 25.4928 152.399 25.5143 153.077 25.3373L152.913 24.7094L152.749 24.0815C152.314 24.195 151.884 24.1829 151.444 24.0411L151.245 24.6589ZM152.913 24.7094L153.077 25.3373L153.911 25.1193L153.747 24.4914L153.583 23.8635L152.749 24.0815L152.913 24.7094ZM153.747 24.4914L153.911 25.1193L154.745 24.9014L154.581 24.2735L154.417 23.6456L153.583 23.8635L153.747 24.4914ZM154.581 24.2735L154.745 24.9014C155.012 24.8316 155.215 24.7883 155.361 24.7667C155.433 24.7558 155.483 24.7518 155.513 24.751C155.548 24.7501 155.535 24.7543 155.494 24.7441L155.651 24.1144L155.808 23.4847C155.594 23.4315 155.354 23.4554 155.17 23.4828C154.959 23.5141 154.706 23.57 154.417 23.6456L154.581 24.2735ZM155.651 24.1144L155.494 24.7441L155.73 24.8029L155.887 24.1732L156.044 23.5435L155.808 23.4847L155.651 24.1144ZM155.887 24.1732L155.691 24.792L156.063 24.9097L156.259 24.2909L156.454 23.6721L156.082 23.5545L155.887 24.1732ZM156.259 24.2909V24.9399H156.359V24.2909V23.6419H156.259V24.2909Z" fill="white"/>
<path d="M154.17 10.7178C152.818 9.36607 150.627 9.36607 149.275 10.7178C147.923 12.0695 147.923 14.2611 149.275 15.6128C150.627 16.9645 152.818 16.9645 154.17 15.6128C155.522 14.2611 155.522 12.0695 154.17 10.7178ZM151.652 13.236L151.193 12.7771L151.155 12.8151L151.123 12.8589L151.652 13.236ZM150.699 14.571L150.17 14.194L150.699 14.571ZM145.759 18.9956L146.31 19.3388L145.759 18.9956ZM141.89 23.3829L142.381 23.8079L141.89 23.3829ZM140.796 24.6469L141.286 25.0718L140.796 24.6469ZM139.479 25.6887L139.173 25.1159L139.479 25.6887ZM137.939 26.5084L138.244 27.0812L137.939 26.5084ZM136.757 27.6852L137.329 27.9925L136.757 27.6852ZM136.345 28.4521L136.917 28.7595L136.345 28.4521ZM135.933 29.2191L135.361 28.9118L135.933 29.2191ZM134.741 30.386L134.444 29.8085L134.741 30.386ZM133.961 30.7858L134.257 31.3633L133.961 30.7858ZM131.967 32.3294L132.527 32.6573L131.967 32.3294ZM131.531 33.0732L132.091 33.4011L131.531 33.0732ZM131.095 33.817L130.535 33.489L131.095 33.817ZM130.451 34.686L130.786 35.2424L130.451 34.686ZM130.243 34.8113L130.542 35.3873L130.56 35.378L130.577 35.3676L130.243 34.8113ZM129.897 34.991L129.598 34.4151L129.509 34.4613L129.438 34.5321L129.897 34.991ZM132.273 32.6142C130.922 31.2625 128.73 31.2625 127.378 32.6142C126.027 33.966 126.027 36.1575 127.378 37.5093C128.73 38.861 130.922 38.861 132.273 37.5093C133.625 36.1575 133.625 33.966 132.273 32.6142ZM151.722 13.1653L151.264 12.7064L151.193 12.7771L151.652 13.236L152.111 13.6949L152.181 13.6242L151.722 13.1653ZM151.652 13.236L151.123 12.8589L150.17 14.194L150.699 14.571L151.227 14.9481L152.18 13.6131L151.652 13.236ZM150.699 14.571L150.17 14.194C149.551 15.0621 149.048 15.5418 148.671 15.7419L148.975 16.3151L149.28 16.8883C149.93 16.5431 150.576 15.8601 151.227 14.9481L150.699 14.571ZM148.975 16.3151L148.671 15.7419L147.901 16.151L148.205 16.7242L148.509 17.2974L149.28 16.8883L148.975 16.3151ZM148.205 16.7242L147.901 16.151L147.13 16.5601L147.435 17.1332L147.739 17.7064L148.509 17.2974L148.205 16.7242ZM147.435 17.1332L147.13 16.5601C146.518 16.8853 146.024 17.3424 145.661 17.9257L146.212 18.2689L146.762 18.6122C147.003 18.2267 147.324 17.9266 147.739 17.7064L147.435 17.1332ZM146.212 18.2689L145.661 17.9257L145.208 18.6524L145.759 18.9956L146.31 19.3388L146.762 18.6122L146.212 18.2689ZM145.759 18.9956L145.208 18.6524L144.755 19.379L145.306 19.7222L145.857 20.0654L146.31 19.3388L145.759 18.9956ZM145.306 19.7222L144.755 19.379C144.481 19.8183 144.164 20.2095 143.802 20.5546L144.249 21.0244L144.697 21.4942C145.14 21.0718 145.527 20.595 145.857 20.0654L145.306 19.7222ZM144.249 21.0244L143.802 20.5546L143.198 21.1301L143.646 21.5999L144.093 22.0697L144.697 21.4942L144.249 21.0244ZM143.646 21.5999L143.198 21.1301L142.594 21.7056L143.042 22.1754L143.489 22.6452L144.093 22.0697L143.646 21.5999ZM143.042 22.1754L142.594 21.7056C142.176 22.1036 141.778 22.5211 141.4 22.958L141.89 23.3829L142.381 23.8079C142.732 23.4021 143.102 23.0146 143.489 22.6452L143.042 22.1754ZM141.89 23.3829L141.4 22.958L140.852 23.59L141.343 24.0149L141.834 24.4398L142.381 23.8079L141.89 23.3829ZM141.343 24.0149L140.852 23.59L140.305 24.222L140.796 24.6469L141.286 25.0718L141.834 24.4398L141.343 24.0149ZM140.796 24.6469L140.305 24.222C139.994 24.5804 139.619 24.8785 139.173 25.1159L139.479 25.6887L139.784 26.2615C140.364 25.9524 140.867 25.556 141.286 25.0718L140.796 24.6469ZM139.479 25.6887L139.173 25.1159L138.404 25.5257L138.709 26.0985L139.014 26.6714L139.784 26.2615L139.479 25.6887ZM138.709 26.0985L138.404 25.5257L137.634 25.9355L137.939 26.5084L138.244 27.0812L139.014 26.6714L138.709 26.0985ZM137.939 26.5084L137.634 25.9355C137.008 26.2689 136.522 26.7535 136.186 27.3778L136.757 27.6852L137.329 27.9925C137.543 27.5942 137.844 27.2942 138.244 27.0812L137.939 26.5084ZM136.757 27.6852L136.186 27.3778L135.773 28.1448L136.345 28.4521L136.917 28.7595L137.329 27.9925L136.757 27.6852ZM136.345 28.4521L135.773 28.1448L135.361 28.9118L135.933 29.2191L136.504 29.5265L136.917 28.7595L136.345 28.4521ZM135.933 29.2191L135.361 28.9118C135.149 29.3065 134.848 29.6016 134.444 29.8085L134.741 30.386L135.037 30.9634C135.673 30.6372 136.167 30.1544 136.504 29.5265L135.933 29.2191ZM134.741 30.386L134.444 29.8085L133.665 30.2084L133.961 30.7858L134.257 31.3633L135.037 30.9634L134.741 30.386ZM133.961 30.7858L133.665 30.2084L132.885 30.6082L133.182 31.1857L133.478 31.7631L134.257 31.3633L133.961 30.7858ZM133.182 31.1857L132.885 30.6082C132.258 30.9302 131.76 31.3971 131.406 32.0014L131.967 32.3294L132.527 32.6573C132.753 32.2699 133.066 31.9743 133.478 31.7631L133.182 31.1857ZM131.967 32.3294L131.406 32.0014L130.971 32.7452L131.531 33.0732L132.091 33.4011L132.527 32.6573L131.967 32.3294ZM131.531 33.0732L130.971 32.7452L130.535 33.489L131.095 33.817L131.655 34.145L132.091 33.4011L131.531 33.0732ZM131.095 33.817L130.535 33.489C130.396 33.7271 130.283 33.9013 130.195 34.0197C130.151 34.0788 130.119 34.1165 130.099 34.1383C130.074 34.1641 130.081 34.1514 130.117 34.1297L130.451 34.686L130.786 35.2424C130.974 35.1291 131.127 34.9424 131.238 34.7926C131.365 34.6213 131.504 34.4027 131.655 34.145L131.095 33.817ZM130.451 34.686L130.117 34.1297L129.909 34.255L130.243 34.8113L130.577 35.3676L130.786 35.2424L130.451 34.686ZM130.243 34.8113L129.944 34.2353L129.598 34.4151L129.897 34.991L130.196 35.567L130.542 35.3873L130.243 34.8113ZM129.897 34.991L129.438 34.5321L129.367 34.6028L129.826 35.0618L130.285 35.5207L130.356 35.45L129.897 34.991Z" fill="white"/>
<path d="M154.17 37.4932C155.522 36.1415 155.522 33.9499 154.17 32.5982C152.818 31.2464 150.627 31.2464 149.275 32.5982C147.923 33.9499 147.923 36.1415 149.275 37.4932C150.627 38.8449 152.818 38.8449 154.17 37.4932ZM151.652 34.975L152.111 34.5161L152.073 34.478L152.029 34.4467L151.652 34.975ZM150.317 34.0219L150.694 33.4937L150.317 34.0219ZM145.892 29.082L145.549 29.6328L145.892 29.082ZM141.505 25.2136L141.08 25.7042L141.505 25.2136ZM140.241 24.1188L139.816 24.6093L140.241 24.1188ZM139.199 22.8018L139.772 22.4968L139.199 22.8018ZM138.379 21.2627L137.807 21.5678L138.379 21.2627ZM137.203 20.0807L136.895 20.6523L137.203 20.0807ZM136.436 19.6683L136.128 20.2399L136.436 19.6683ZM135.669 19.2559L135.976 18.6843L135.669 19.2559ZM134.502 18.0639L135.079 17.7677L134.502 18.0639ZM134.102 17.2844L133.524 17.5806L134.102 17.2844ZM132.558 15.2898L132.23 15.8498L132.558 15.2898ZM131.815 14.8542L131.487 15.4142L131.815 14.8542ZM131.071 14.4186L131.399 13.8586L131.071 14.4186ZM130.202 13.7746L129.645 14.1088L130.202 13.7746ZM130.076 13.5661L129.5 13.8652L129.51 13.8831L129.52 13.9004L130.076 13.5661ZM129.897 13.2199L130.473 12.9208L130.426 12.8319L130.356 12.761L129.897 13.2199ZM132.273 15.5967C133.625 14.245 133.625 12.0534 132.273 10.7017C130.922 9.34999 128.73 9.34998 127.378 10.7017C126.027 12.0534 126.027 14.245 127.378 15.5967C128.73 16.9484 130.922 16.9484 132.273 15.5967ZM151.722 35.0457L152.181 34.5868L152.111 34.5161L151.652 34.975L151.193 35.4339L151.264 35.5046L151.722 35.0457ZM151.652 34.975L152.029 34.4467L150.694 33.4937L150.317 34.0219L149.94 34.5501L151.275 35.5032L151.652 34.975ZM150.317 34.0219L150.694 33.4937C149.826 32.874 149.346 32.3711 149.146 31.9942L148.573 32.2985L147.999 32.6029C148.345 33.253 149.028 33.8991 149.94 34.5501L150.317 34.0219ZM148.573 32.2985L149.146 31.9942L148.737 31.2238L148.164 31.5282L147.59 31.8326L147.999 32.6029L148.573 32.2985ZM148.164 31.5282L148.737 31.2238L148.328 30.4535L147.754 30.7579L147.181 31.0622L147.59 31.8326L148.164 31.5282ZM147.754 30.7579L148.328 30.4535C148.002 29.841 147.545 29.3474 146.962 28.984L146.619 29.5348L146.276 30.0856C146.661 30.3258 146.961 30.6477 147.181 31.0622L147.754 30.7579ZM146.619 29.5348L146.962 28.984L146.235 28.5312L145.892 29.082L145.549 29.6328L146.276 30.0856L146.619 29.5348ZM145.892 29.082L146.235 28.5312L145.509 28.0784L145.166 28.6292L144.822 29.1801L145.549 29.6328L145.892 29.082ZM145.166 28.6292L145.509 28.0784C145.069 27.8047 144.678 27.4869 144.333 27.1249L143.863 27.5726L143.394 28.0204C143.816 28.4635 144.293 28.8501 144.822 29.1801L145.166 28.6292ZM143.863 27.5726L144.333 27.1249L143.758 26.521L143.288 26.9688L142.818 27.4165L143.394 28.0204L143.863 27.5726ZM143.288 26.9688L143.758 26.521L143.182 25.9171L142.712 26.3649L142.242 26.8127L142.818 27.4165L143.288 26.9688ZM142.712 26.3649L143.182 25.9171C142.784 25.4996 142.367 25.1015 141.93 24.7231L141.505 25.2136L141.08 25.7042C141.486 26.0556 141.873 26.4251 142.242 26.8127L142.712 26.3649ZM141.505 25.2136L141.93 24.7231L141.298 24.1757L140.873 24.6662L140.448 25.1568L141.08 25.7042L141.505 25.2136ZM140.873 24.6662L141.298 24.1757L140.666 23.6282L140.241 24.1188L139.816 24.6093L140.448 25.1568L140.873 24.6662ZM140.241 24.1188L140.666 23.6282C140.307 23.3177 140.009 22.9425 139.772 22.4968L139.199 22.8018L138.626 23.1069C138.935 23.6873 139.332 24.19 139.816 24.6093L140.241 24.1188ZM139.199 22.8018L139.772 22.4968L139.362 21.7272L138.789 22.0323L138.216 22.3373L138.626 23.1069L139.199 22.8018ZM138.789 22.0323L139.362 21.7272L138.952 20.9576L138.379 21.2627L137.807 21.5678L138.216 22.3373L138.789 22.0323ZM138.379 21.2627L138.952 20.9576C138.619 20.3316 138.134 19.8448 137.51 19.5091L137.203 20.0807L136.895 20.6523C137.293 20.8665 137.593 21.1677 137.807 21.5678L138.379 21.2627ZM137.203 20.0807L137.51 19.5091L136.743 19.0967L136.436 19.6683L136.128 20.2399L136.895 20.6523L137.203 20.0807ZM136.436 19.6683L136.743 19.0967L135.976 18.6843L135.669 19.2559L135.361 19.8275L136.128 20.2399L136.436 19.6683ZM135.669 19.2559L135.976 18.6843C135.581 18.472 135.286 18.1711 135.079 17.7677L134.502 18.0639L133.924 18.3601C134.251 18.9961 134.733 19.4898 135.361 19.8275L135.669 19.2559ZM134.502 18.0639L135.079 17.7677L134.679 16.9882L134.102 17.2844L133.524 17.5806L133.924 18.3601L134.502 18.0639ZM134.102 17.2844L134.679 16.9882L134.279 16.2087L133.702 16.5049L133.125 16.8011L133.524 17.5806L134.102 17.2844ZM133.702 16.5049L134.279 16.2087C133.957 15.581 133.491 15.0836 132.886 14.7297L132.558 15.2898L132.23 15.8498C132.618 16.0767 132.913 16.3894 133.125 16.8011L133.702 16.5049ZM132.558 15.2898L132.886 14.7297L132.142 14.2942L131.815 14.8542L131.487 15.4142L132.23 15.8498L132.558 15.2898ZM131.815 14.8542L132.142 14.2942L131.399 13.8586L131.071 14.4186L130.743 14.9786L131.487 15.4142L131.815 14.8542ZM131.071 14.4186L131.399 13.8586C131.161 13.7192 130.986 13.6062 130.868 13.5184C130.809 13.4746 130.771 13.4426 130.749 13.4219C130.724 13.3975 130.736 13.4042 130.758 13.4404L130.202 13.7746L129.645 14.1088C129.759 14.2973 129.945 14.4502 130.095 14.5612C130.266 14.6881 130.485 14.8277 130.743 14.9786L131.071 14.4186ZM130.202 13.7746L130.758 13.4404L130.633 13.2319L130.076 13.5661L129.52 13.9004L129.645 14.1088L130.202 13.7746ZM130.076 13.5661L130.652 13.267L130.473 12.9208L129.897 13.2199L129.321 13.519L129.5 13.8652L130.076 13.5661ZM129.897 13.2199L130.356 12.761L130.285 12.6903L129.826 13.1492L129.367 13.6081L129.438 13.6788L129.897 13.2199Z" fill="white"/>
<circle cx="140.875" cy="24.1982" r="2.50326" fill="white"/>
<circle cx="140.875" cy="24.1982" r="1.76155" fill="#627283"/>
<circle cx="129.842" cy="13.1653" r="2.03969" fill="#627283"/>
<circle cx="140.782" cy="8.52964" r="2.03969" fill="#627283"/>
<circle cx="151.908" cy="13.1653" r="2.03969" fill="#627283"/>
<circle cx="156.544" cy="24.2909" r="2.03969" fill="#627283"/>
<circle cx="151.908" cy="35.0457" r="2.03969" fill="#627283"/>
<circle cx="140.782" cy="39.6813" r="2.03969" fill="#627283"/>
<circle cx="129.842" cy="35.0457" r="2.03969" fill="#627283"/>
<circle cx="125.392" cy="24.2909" r="2.03969" fill="#627283"/>
</svg>
